# xmcd
# 
# Track frame offsets:
#     150
#     34865
#     53710
#     86922
#     119002
#     150002
# 
# Disc length: 2338
# 
# Revision: 2
# Processed by: cddbd v1.5.2PL0 Copyright (c) Steve Scherf et al.
# Submitted via: BonkEnc v1.0.8
# 
DISCID=43092006
DTITLE=Richie Beirach, 富樫雅彦, 日野皓正 - Ayers Rock
DYEAR=1984
DGENRE=Contemporary Jazz
TTITLE0=Stone
TTITLE1=Emerald City
TTITLE2=Ayers Rock
TTITLE3=Boomerang
TTITLE4=Arid Rain
TTITLE5=Johnny. B.
EXTD=
EXTT0=
EXTT1=
EXTT2=
EXTT3=
EXTT4=
EXTT5=
PLAYORDER=
